<svg xmlns:xlink="http://www.w3.org/1999/xlink" xmlns="http://www.w3.org/2000/svg" height="100.01860119047619" width="356" style="width: 356px; height: 100.019px; position: absolute; top: 50%; left: 50%; transform: translate(-50%, -50%) scale(1); z-index: 0; cursor: pointer;"><defs id="SvgjsDefs1001"></defs><g id="SvgjsG1007" featurekey="symbolFeature-0" transform="matrix(1.1904761791229248,0,0,1.1904761791229248,-9.523809523809524,-9.505208333333334)" fill="#111111"><g xmlns="http://www.w3.org/2000/svg" transform="translate(0,-952.36218)" fill="#111111"><path style="font-size: medium; font-style: normal; font-variant: normal; font-weight: normal; font-stretch: normal; text-indent: 0px; text-align: start; text-decoration: none; line-height: normal; letter-spacing: normal; word-spacing: normal; text-transform: none; direction: ltr; writing-mode: horizontal-tb; text-anchor: start; opacity: 1; fill-opacity: 1; stroke: none; marker: none; visibility: visible; display: inline; overflow: visible; font-family: Sans;" d="M 49.84375 8 A 1.0001 1.0001 0 0 0 49.25 8.3125 C 46.061983 11.815495 43.469579 16.519271 41.6875 22 L 9 22 A 1.0001 1.0001 0 0 0 8.8125 22 A 1.0001 1.0001 0 0 0 8 23 L 8 74 A 1.0001 1.0001 0 0 0 9 75 L 49 75 L 49 82.03125 C 41.444262 82.296516 34.85109 85.504939 31.1875 90.375 A 1.0001 1.0001 0 0 0 32 92 L 68 92 A 1.0001 1.0001 0 0 0 68.8125 90.375 C 65.148912 85.504939 58.555738 82.296516 51 82.03125 L 51 74 A 1.0001 1.0001 0 0 0 50 73 L 10 73 L 10 24 L 41.09375 24 C 39.750516 28.797796 39 34.103461 39 39.71875 C 39 40.146592 39.02229 40.575731 39.03125 41 L 30.46875 46.125 A 1.0001 1.0001 0 0 0 30 47 L 30 59 A 1.0001 1.0001 0 0 0 31.375 59.90625 L 41.3125 55.96875 C 41.441426 56.407926 41.54908 56.851325 41.6875 57.28125 A 1.0001 1.0001 0 0 0 42.625 58 L 57.375 58 A 1.0001 1.0001 0 0 0 58.3125 57.28125 C 58.45092 56.851325 58.558574 56.407926 58.6875 55.96875 L 68.625 59.90625 A 1.0001 1.0001 0 0 0 70 59 L 70 47 A 1.0001 1.0001 0 0 0 69.53125 46.125 L 60.96875 41 C 60.97771 40.575731 61 40.146592 61 39.71875 C 61 34.103461 60.249484 28.797796 58.90625 24 L 90 24 L 90 73 L 57.96875 73 A 1.0001 1.0001 0 1 0 57.96875 75 L 91 75 A 1.0001 1.0001 0 0 0 92 74 L 92 23 A 1.0001 1.0001 0 0 0 91 22 L 58.3125 22 C 56.53042 16.519271 53.938016 11.815495 50.75 8.3125 A 1.0001 1.0001 0 0 0 49.84375 8 z M 50 10.71875 C 55.355051 17.20885 59 27.69671 59 39.71875 C 59 45.59475 58.095325 51.1064 56.59375 56 L 43.40625 56 C 41.904675 51.1064 41 45.59475 41 39.71875 C 41 27.69671 44.644948 17.20885 50 10.71875 z M 50 27 C 47.25042 27 45 29.25042 45 32 C 45 34.74958 47.25042 37 50 37 C 52.74958 37 55 34.74958 55 32 C 55 29.25042 52.74958 27 50 27 z M 50 29 C 51.6687 29 53 30.3313 53 32 C 53 33.6687 51.6687 35 50 35 C 48.3313 35 47 33.6687 47 32 C 47 30.3313 48.3313 29 50 29 z M 39.125 43.28125 C 39.348909 47.067537 39.9225 50.681942 40.78125 54.0625 L 32 57.53125 L 32 47.5625 L 39.125 43.28125 z M 60.875 43.28125 L 68 47.5625 L 68 57.53125 L 59.21875 54.0625 C 60.077499 50.681942 60.65109 47.067537 60.875 43.28125 z M 50 84 C 56.469388 84 62.037526 86.4246 65.625 90 L 34.375 90 C 37.962476 86.4246 43.530612 84 50 84 z " transform="translate(0,952.36218)" fill="#111111" stroke-width="2px"></path></g></g><g id="SvgjsG1008" featurekey="textGroupContainer" transform="matrix(1,0,0,1,355,24)" fill="#111111"><rect xmlns="http://www.w3.org/2000/svg" y="0" height="1" width="1" opacity="0" fill="#111111"></rect><rect xmlns="http://www.w3.org/2000/svg" y="0" x="-235" width="3" height="52" fill="#111111"></rect></g><g id="SvgjsG1009" featurekey="vMvB0T-0" transform="matrix(1.8178590536117554,0,0,1.8178590536117554,135.23770637315818,26.02183561157465)" fill="#111111"><path d="M12.28 6.199999999999999 l0.14 0.14 l0 13.6 q-0.8 0.18 -1.89 0.18 t-1.93 -0.12 l-3.14 -7.16 q-0.56 -1.22 -1.14 -2.82 l-0.06 0.02 q0.24 2.92 0.24 5.98 l0 3.98 q-0.62 0.12 -1.5 0.12 t-1.48 -0.12 l0 -13.6 q0.76 -0.18 1.83 -0.18 t1.91 0.12 l3.1 7.14 q0.84 1.98 1.24 3.04 l0.08 -0.04 q-0.24 -2.78 -0.24 -5.9 l0 -2.44 q0 -1.04 0.42 -1.49 t1.36 -0.45 l1.06 0 z M18.4 16.28 q0.54 1.56 2.18 1.56 q0.82 0 1.33 -0.41 t0.8 -1.04 t0.39 -1.41 t0.1 -1.54 q0 -0.7 -0.05 -1.56 t-0.29 -1.61 t-0.76 -1.26 t-1.52 -0.51 q-0.96 0 -1.47 0.49 t-0.76 1.21 t-0.31 1.53 t-0.06 1.43 q0 0.92 0.09 1.64 t0.33 1.48 z M16.78 19.04 q-2.14 -1.78 -2.14 -5.86 q0 -1.76 0.41 -3.09 t1.18 -2.23 t1.87 -1.36 t2.48 -0.46 t2.49 0.46 t1.88 1.37 t1.18 2.24 t0.41 3.07 t-0.41 3.07 t-1.18 2.23 t-1.88 1.36 t-2.49 0.46 q-2.28 0 -3.8 -1.26 z M33.66 8.98 l0.02 1.48 l0 9.54 q-0.68 0.12 -1.62 0.12 t-1.58 -0.12 l0 -11.02 l-1.28 0.02 l-2.06 0 q-0.12 -0.58 -0.12 -1.33 t0.12 -1.33 l9.9 0 q0.16 0.52 0.16 1.26 t-0.4 1.07 t-1.28 0.33 l-0.58 0 l-1.26 -0.02 l-0.02 0 z M41.81999999999999 15.96 l-0.02 1.44 l0 0.02 q0.92 -0.04 1.48 -0.04 l4.64 0 q0 0.74 -0.06 1.14 q-0.24 1.54 -2.04 1.54 l-5.32 0 q-0.86 0 -1.35 -0.5 t-0.49 -1.36 l0 -11.72 l0.14 -0.14 l8.62 0 q0.12 0.58 0.12 1.26 t-0.28 1.42 l-5.46 0 l0.02 1.44 l0 1.4 q0.52 -0.02 1.36 -0.02 l3.06 0 q0.18 0.56 0.18 1.28 t-0.18 1.32 l-4.42 0 l0 1.52 z M55.199999999999996 15.86 l-5.64 0 q-0.12 -0.5 -0.12 -1.25 t0.12 -1.25 l5.64 0 q0.12 0.5 0.12 1.25 t-0.12 1.25 z M62 8.98 l0.02 1.48 l0 9.54 q-0.68 0.12 -1.62 0.12 t-1.58 -0.12 l0 -11.02 l-1.28 0.02 l-2.06 0 q-0.12 -0.58 -0.12 -1.33 t0.12 -1.33 l9.9 0 q0.16 0.52 0.16 1.26 t-0.4 1.07 t-1.28 0.33 l-0.58 0 l-1.26 -0.02 l-0.02 0 z M74.52 11.64 l-0.02 -1.48 l0 -3.82 q0.62 -0.12 1.61 -0.12 t1.59 0.12 l0 13.66 q-0.64 0.12 -1.6 0.12 t-1.6 -0.12 l0 -4.24 l0.02 -1.48 l-1 0.02 l-2.32 0 l-1 -0.02 l0.02 1.48 l0 4.24 q-0.62 0.12 -1.6 0.12 t-1.6 -0.12 l0 -13.66 q0.62 -0.12 1.6 -0.12 t1.6 0.12 l0 3.82 l-0.02 1.48 l1 -0.02 l2.32 0 z M80.78 20 l0 -13.66 q0.62 -0.12 1.6 -0.12 t1.62 0.12 l0 13.66 q-0.64 0.12 -1.62 0.12 t-1.6 -0.12 z M97.84 6.199999999999999 l0.14 0.14 l0 13.6 q-0.8 0.18 -1.89 0.18 t-1.93 -0.12 l-3.14 -7.16 q-0.56 -1.22 -1.14 -2.82 l-0.06 0.02 q0.24 2.92 0.24 5.98 l0 3.98 q-0.62 0.12 -1.5 0.12 t-1.48 -0.12 l0 -13.6 q0.76 -0.18 1.83 -0.18 t1.91 0.12 l3.1 7.14 q0.84 1.98 1.24 3.04 l0.08 -0.04 q-0.24 -2.78 -0.24 -5.9 l0 -2.44 q0 -1.04 0.42 -1.49 t1.36 -0.45 l1.06 0 z M106.28 12.24 l3.14 -0.02 q2.12 0 2.12 2 l0 5.26 q-2.58 0.82 -5.42 0.82 q-1.44 0 -2.55 -0.48 t-1.86 -1.38 t-1.13 -2.21 t-0.38 -2.97 q0 -1.82 0.53 -3.17 t1.42 -2.25 t2.05 -1.35 t2.42 -0.45 q2.6 0 4.88 1.44 q-0.02 0.32 -0.15 0.65 t-0.32 0.64 t-0.44 0.56 t-0.51 0.43 q-1.66 -1.08 -3.36 -1.08 q-3.26 0 -3.26 4.56 q0 4.54 3.34 4.54 q0.46 0 0.89 -0.04 t0.85 -0.12 l0 -1.34 q0 -0.46 0.01 -0.8 t0.03 -0.58 l-1 0 q-0.86 0 -1.19 -0.33 t-0.33 -1.03 q0 -0.6 0.22 -1.3 z" fill="#111111"></path></g></svg>