<?xml version="1.0" encoding="UTF-8" standalone="no" ?>
<!DOCTYPE svg PUBLIC "-//W3C//DTD SVG 1.1//EN" "http://www.w3.org/Graphics/SVG/1.1/DTD/svg11.dtd">
<svg xmlns="http://www.w3.org/2000/svg" xmlns:xlink="http://www.w3.org/1999/xlink" version="1.1" width="539" height="113" viewBox="-20 193 539 113" xml:space="preserve">
<g transform="matrix(1 0 0 1 462.95 249.95)" id="x_TqMiPytOweILw7wb44e"  >
<path style="stroke: none; stroke-width: 1; stroke-dasharray: none; stroke-linecap: butt; stroke-dashoffset: 0; stroke-linejoin: miter; stroke-miterlimit: 4; fill: rgb(255,255,255); fill-rule: nonzero; opacity: 1;" vector-effect="non-scaling-stroke"  transform=" translate(-475.95, -49.95)" d="M 472.675 0.0268854 C 472.46000000000004 0.0464147 471.777 0.11476700000000001 471.16200000000003 0.16359100000000001 C 456.97400000000005 1.44276 443.684 9.09827 435.26700000000005 20.8647 C 430.58000000000004 27.407 427.58200000000005 34.828199999999995 426.44900000000007 42.6887 C 426.0490000000001 45.432599999999994 426.00000000000006 46.2431 426.00000000000006 49.9634 C 426.00000000000006 53.6838 426.04900000000004 54.4942 426.44900000000007 57.2381 C 429.16400000000004 75.99600000000001 442.51200000000006 91.7562 460.6160000000001 97.5955 C 463.8580000000001 98.6403 467.2750000000001 99.3531 471.1620000000001 99.7828 C 472.67500000000007 99.94879999999999 479.2170000000001 99.94879999999999 480.7310000000001 99.7828 C 487.43900000000014 99.0407 493.1220000000001 97.38069999999999 498.7270000000001 94.5196 C 499.5870000000001 94.08019999999999 499.7530000000001 93.963 499.6350000000001 93.8654 C 499.55700000000013 93.8068 495.89600000000013 88.89519999999999 491.5010000000001 82.95819999999999 L 483.51400000000007 72.16829999999999 L 473.50500000000005 57.355299999999986 C 467.99800000000005 49.21149999999999 463.46700000000004 42.551999999999985 463.42800000000005 42.551999999999985 C 463.38900000000007 42.54229999999998 463.3500000000001 49.123699999999985 463.33000000000004 57.15999999999998 C 463.30100000000004 71.23089999999998 463.29100000000005 71.79719999999998 463.11600000000004 72.12919999999998 C 462.862 72.60769999999998 462.66600000000005 72.80299999999998 462.25600000000003 73.01779999999998 C 461.944 73.17399999999998 461.67 73.20329999999998 460.196 73.20329999999998 L 458.507 73.20329999999998 L 458.057 72.92019999999998 C 457.764 72.73459999999999 457.55 72.49049999999998 457.403 72.20729999999998 L 457.19800000000004 71.76789999999997 L 457.218 52.18979999999997 L 457.247 32.60179999999997 L 457.55 32.22099999999997 C 457.706 32.01589999999997 458.038 31.75229999999997 458.272 31.625399999999967 C 458.673 31.430099999999968 458.829 31.410499999999967 460.518 31.410499999999967 C 462.51 31.410499999999967 462.842 31.488699999999966 463.35999999999996 32.054999999999964 C 463.506 32.21119999999996 468.92499999999995 40.37449999999996 475.40899999999993 50.20749999999997 C 481.8929999999999 60.04059999999997 490.75899999999996 73.46699999999997 495.1139999999999 80.05809999999997 L 503.02399999999994 92.03939999999997 L 503.4239999999999 91.77569999999997 C 506.96899999999994 89.47129999999997 510.7179999999999 86.19029999999998 513.6869999999999 82.77269999999997 C 520.0039999999999 75.51759999999997 524.0759999999999 66.67079999999997 525.4429999999999 57.238099999999974 C 525.8439999999998 54.49419999999998 525.8929999999999 53.68379999999998 525.8929999999999 49.96339999999997 C 525.8929999999999 46.24309999999997 525.8439999999999 45.43259999999997 525.4429999999999 42.68869999999997 C 522.7289999999998 23.93079999999997 509.38099999999986 8.170619999999971 491.2769999999999 2.331349999999972 C 488.0839999999999 1.296289999999972 484.68599999999986 0.583471999999972 480.8769999999999 0.15382599999997204 C 479.9399999999999 0.05617939999997204 473.4859999999999 -0.05123200000002795 472.6749999999999 0.026885399999972054 z M 493.122 30.2388 C 493.591 30.473100000000002 493.97200000000004 30.9223 494.10900000000004 31.391000000000002 C 494.187 31.644900000000003 494.206 37.074 494.187 49.309200000000004 L 494.15700000000004 66.8661 L 491.062 62.120400000000004 L 487.957 57.37480000000001 L 487.957 44.61240000000001 C 487.957 36.36120000000001 487.996 31.723000000000006 488.054 31.498400000000007 C 488.21099999999996 30.951600000000006 488.55199999999996 30.522000000000006 489.02099999999996 30.268100000000008 C 489.42199999999997 30.063000000000006 489.568 30.04350000000001 491.10099999999994 30.04350000000001 C 492.54599999999994 30.04350000000001 492.79999999999995 30.06300000000001 493.12199999999996 30.23880000000001 z" stroke-linecap="round" />
</g>
<g transform="matrix(1 0 0 1 321 249.53)" id="QPw16sD1U8IxH_S5u3mVU"  >
<path style="stroke: none; stroke-width: 1; stroke-dasharray: none; stroke-linecap: butt; stroke-dashoffset: 0; stroke-linejoin: miter; stroke-miterlimit: 4; fill: rgb(255,255,255); fill-rule: nonzero; opacity: 1;" vector-effect="non-scaling-stroke"  transform=" translate(-334, -49.53)" d="M 384 49.5373 C 384 42.912800000000004 375.704 36.6347 362.985 32.7415 C 365.92 19.777800000000003 364.616 9.463920000000002 358.868 6.1618400000000015 C 357.543 5.387280000000001 355.993 5.020380000000001 354.302 5.020380000000001 L 354.302 9.565840000000001 C 355.23900000000003 9.565840000000001 355.993 9.749290000000002 356.625 10.0958 C 359.397 11.6857 360.6 17.7395 359.662 25.5259 C 359.438 27.4419 359.07099999999997 29.4598 358.623 31.5185 C 354.628 30.5402 350.26599999999996 29.786 345.68 29.2968 C 342.928 25.5259 340.074 22.1015 337.2 19.105200000000004 C 343.84499999999997 12.929100000000004 350.082 9.545450000000004 354.322 9.545450000000004 L 354.322 5.000000000000004 C 348.717 5.000000000000004 341.379 8.995110000000004 333.959 15.925400000000003 C 326.54 9.035880000000002 319.202 5.0815300000000025 313.596 5.0815300000000025 L 313.596 9.626990000000003 C 317.81600000000003 9.626990000000003 324.073 12.990200000000003 330.718 19.125600000000002 C 327.865 22.121900000000004 325.011 25.5259 322.3 29.296800000000005 C 317.693 29.786000000000005 313.331 30.540200000000006 309.336 31.538900000000005 C 308.868 29.500600000000006 308.521 27.523400000000006 308.276 25.627800000000004 C 307.318 17.841400000000004 308.50100000000003 11.787600000000005 311.252 10.177300000000004 C 311.86400000000003 9.810440000000003 312.659 9.647370000000004 313.596 9.647370000000004 L 313.596 5.101920000000004 C 311.884 5.101920000000004 310.335 5.468810000000004 308.99 6.243380000000004 C 303.262 9.545450000000004 301.978 19.839000000000006 304.934 32.761900000000004 C 292.25500000000005 36.67550000000001 284 42.9331 284 49.5373 C 284 56.1618 292.296 62.4399 305.015 66.3331 C 302.08 79.2968 303.384 89.61070000000001 309.132 92.9128 C 310.457 93.68730000000001 312.007 94.05420000000001 313.719 94.05420000000001 C 319.324 94.05420000000001 326.662 90.05910000000002 334.082 83.12880000000001 C 341.501 90.01830000000001 348.839 93.97270000000002 354.444 93.97270000000002 C 356.15700000000004 93.97270000000002 357.706 93.60580000000002 359.05100000000004 92.83120000000002 C 364.77900000000005 89.52910000000003 366.06300000000005 79.23560000000002 363.107 66.31270000000002 C 375.745 62.41950000000002 384 56.14150000000002 384 49.537300000000016 z M 357.461 35.941700000000004 C 356.707 38.5711 355.769 41.28210000000001 354.709 43.993100000000005 C 353.874 42.36240000000001 352.997 40.73180000000001 352.039 39.1011 C 351.102 37.470400000000005 350.103 35.8806 349.104 34.3314 C 351.998 34.7595 354.791 35.2894 357.461 35.941700000000004 z M 348.12600000000003 57.649800000000006 C 346.53600000000006 60.401500000000006 344.90500000000003 63.010600000000004 343.213 65.43620000000001 C 340.17600000000004 65.70120000000001 337.098 65.84390000000002 334 65.84390000000002 C 330.922 65.84390000000002 327.844 65.70120000000001 324.828 65.45660000000002 C 323.13599999999997 63.03100000000002 321.48499999999996 60.442300000000024 319.895 57.71100000000003 C 318.346 55.040800000000026 316.93899999999996 52.32980000000003 315.655 49.59840000000003 C 316.919 46.86710000000003 318.34599999999995 44.13570000000003 319.87399999999997 41.46550000000003 C 321.46399999999994 38.71380000000003 323.09499999999997 36.104800000000026 324.787 33.67920000000003 C 327.82399999999996 33.41420000000003 330.902 33.27150000000003 334 33.27150000000003 C 337.078 33.27150000000003 340.156 33.41420000000003 343.172 33.658800000000035 C 344.86400000000003 36.08440000000004 346.51500000000004 38.673100000000034 348.105 41.40440000000004 C 349.654 44.07460000000004 351.06100000000004 46.78560000000004 352.345 49.516900000000035 C 351.06100000000004 52.248300000000036 349.65400000000005 54.97960000000003 348.12600000000003 57.649800000000035 z M 354.70900000000006 55.00000000000001 C 355.81000000000006 57.731300000000005 356.74800000000005 60.462700000000005 357.52200000000005 63.11250000000001 C 354.85200000000003 63.76480000000001 352.03900000000004 64.31510000000002 349.124 64.74320000000002 C 350.12300000000005 63.17370000000002 351.122 61.563400000000016 352.06 59.912300000000016 C 352.997 58.281700000000015 353.874 56.630600000000015 354.709 55.000000000000014 z M 334.04100000000005 76.7489 C 332.14500000000004 74.7921 330.2490000000001 72.61110000000001 328.3740000000001 70.2262 C 330.20900000000006 70.3078 332.08400000000006 70.36890000000001 333.9800000000001 70.36890000000001 C 335.8960000000001 70.36890000000001 337.79100000000005 70.32820000000001 339.6460000000001 70.2262 C 337.81200000000007 72.61110000000001 335.91600000000005 74.7921 334.04100000000005 76.7489 z M 318.87600000000003 64.7432 C 315.98100000000005 64.3151 313.189 63.7852 310.519 63.1329 C 311.273 60.5035 312.21 57.7925 313.27 55.0815 C 314.106 56.712199999999996 314.98199999999997 58.3428 315.94 59.9735 C 316.898 61.604200000000006 317.877 63.194 318.876 64.7432 z M 333.939 22.325700000000005 C 335.834 24.282500000000006 337.73 26.463500000000003 339.605 28.848300000000005 C 337.771 28.766800000000007 335.896 28.705700000000004 334 28.705700000000004 C 332.084 28.705700000000004 330.188 28.746400000000005 328.333 28.848300000000005 C 330.168 26.463500000000007 332.064 24.282500000000006 333.939 22.325700000000005 z M 318.855 34.3314 C 317.857 35.9009 316.858 37.5112 315.92 39.1623 C 314.982 40.7929 314.106 42.4236 313.27000000000004 44.0542 C 312.17 41.322900000000004 311.232 38.5915 310.45700000000005 35.9417 C 313.12800000000004 35.309799999999996 315.94000000000005 34.759499999999996 318.8550000000001 34.331399999999995 z M 300.408 59.851200000000006 C 293.19300000000004 56.773300000000006 288.52500000000003 52.737500000000004 288.52500000000003 49.5373 C 288.52500000000003 46.3371 293.19300000000004 42.2809 300.408 39.2234 C 302.161 38.4692 304.077 37.7966 306.055 37.164699999999996 C 307.216 41.1598 308.745 45.318 310.641 49.57809999999999 C 308.766 53.81779999999999 307.257 57.95559999999999 306.11600000000004 61.93029999999999 C 304.09800000000007 61.29839999999999 302.182 60.60539999999999 300.408 59.85119999999999 z M 311.375 88.9788 C 308.603 87.3889 307.4 81.33510000000001 308.338 73.54870000000001 C 308.562 71.63270000000001 308.92900000000003 69.61480000000002 309.377 67.55600000000001 C 313.372 68.5344 317.73400000000004 69.28860000000002 322.32 69.77780000000001 C 325.072 73.54870000000001 327.926 76.97310000000002 330.8 79.96940000000001 C 324.15500000000003 86.14550000000001 317.918 89.5291 313.678 89.5291 C 312.761 89.5088 311.986 89.3253 311.375 88.9788 z M 359.724 73.44680000000001 C 360.682 81.23320000000001 359.49899999999997 87.287 356.748 88.89730000000002 C 356.13599999999997 89.26420000000002 355.341 89.42720000000001 354.404 89.42720000000001 C 350.18399999999997 89.42720000000001 343.927 86.06400000000001 337.282 79.92870000000002 C 340.135 76.93230000000003 342.989 73.52830000000002 345.7 69.75740000000002 C 350.307 69.26820000000002 354.669 68.51410000000001 358.664 67.51530000000002 C 359.132 69.57400000000003 359.49899999999997 71.55120000000002 359.724 73.44680000000002 z M 367.57099999999997 59.85120000000001 C 365.818 60.60540000000001 363.902 61.27800000000001 361.92499999999995 61.909900000000015 C 360.763 57.914800000000014 359.234 53.75660000000001 357.33899999999994 49.49650000000001 C 359.21399999999994 45.25680000000001 360.7219999999999 41.119000000000014 361.8639999999999 37.144300000000015 C 363.8819999999999 37.77620000000002 365.79799999999994 38.469200000000015 367.5919999999999 39.22340000000001 C 374.8069999999999 42.30130000000001 379.4749999999999 46.337100000000014 379.4749999999999 49.537300000000016 C 379.4549999999999 52.73750000000002 374.7869999999999 56.793700000000015 367.5709999999999 59.85120000000002 z" stroke-linecap="round" />
</g>
<g transform="matrix(1 0 0 1 320.98 249.54)" id="2YG72zAxDVWMOb-fYbLb7"  >
<path style="stroke: none; stroke-width: 1; stroke-dasharray: none; stroke-linecap: butt; stroke-dashoffset: 0; stroke-linejoin: miter; stroke-miterlimit: 4; fill: rgb(255,255,255); fill-rule: nonzero; opacity: 1;" vector-effect="non-scaling-stroke"  transform=" translate(-333.98, -49.54)" d="M 333.98 58.8568 C 339.125 58.8568 343.295 54.6863 343.295 49.5417 C 343.295 44.397099999999995 339.125 40.2266 333.98 40.2266 C 328.836 40.2266 324.665 44.397099999999995 324.665 49.5417 C 324.665 54.6863 328.836 58.8568 333.98 58.8568 z" stroke-linecap="round" />
</g>
<g transform="matrix(1 0 0 1 37 249.84)" id="XvztO8Hvbqgv2HoGx6iNa" clip-path="url(#CLIPPATH_2)"  >
<clipPath id="CLIPPATH_2" >
	<path transform="matrix(1 0 0 1 0 0) translate(-50, -49.84)" id="b" d="M 0 10 L 100 10 L 100 89.68 L 0 89.68 z" stroke-linecap="round" />
</clipPath>
<path style="stroke: none; stroke-width: 1; stroke-dasharray: none; stroke-linecap: butt; stroke-dashoffset: 0; stroke-linejoin: miter; stroke-miterlimit: 4; fill: rgb(255,255,255); fill-rule: evenodd; opacity: 1;" vector-effect="non-scaling-stroke"  transform=" translate(-50, -49.84)" d="M 20.7703 10.0078 C 15.064499999999999 10.0078 10.8424 15.001999999999999 11.0314 20.418 C 11.2129 25.621299999999998 10.9771 32.3604 9.28066 37.8561 C 7.578119999999999 43.3672 4.700779999999999 46.8596 0 47.3078 L 0 52.3688 C 4.70078 52.818 7.57812 56.3086 9.28047 61.8205 C 10.9771 67.31620000000001 11.2127 74.0553 11.031199999999998 79.2586 C 10.842199999999998 84.6738 15.0643 89.6688 20.771099999999997 89.6688 L 79.2373 89.6688 C 84.9432 89.6688 89.1645 84.6746 88.97540000000001 79.2586 C 88.79390000000001 74.0553 89.0297 67.31620000000001 90.7262 61.8205 C 92.4287 56.308600000000006 95.299 52.8166 100 52.3688 L 100 47.3078 C 95.2992 46.8586 92.4289 43.368 90.7262 37.8561 C 89.0295 32.3611 88.79390000000001 25.621299999999998 88.97540000000001 20.418 C 89.1645 15.002699999999999 84.9432 10.0078 79.2373 10.0078 L 20.769500000000008 10.0078 z M 67.7967 59.04429999999999 C 67.7967 66.502 62.234 71.0248 53.0025 71.0248 L 37.2881 71.0248 C 36.8386 71.0248 36.4075 70.8462 36.0896 70.5284 C 35.771699999999996 70.21050000000001 35.593199999999996 69.77940000000001 35.593199999999996 69.32990000000001 L 35.593199999999996 30.346900000000012 C 35.593199999999996 29.89740000000001 35.771699999999996 29.46620000000001 36.0896 29.148400000000013 C 36.4075 28.83050000000001 36.8386 28.65200000000001 37.2881 28.65200000000001 L 52.9131 28.65200000000001 C 60.6105 28.65200000000001 65.6623 32.821500000000015 65.6623 39.22300000000001 C 65.6623 43.716200000000015 62.2639 47.738700000000016 57.934400000000004 48.44340000000001 L 57.934400000000004 48.67770000000001 C 63.828100000000006 49.32420000000001 67.7967 53.40630000000001 67.7967 59.04430000000001 z M 51.289100000000005 34.02479999999999 L 42.328900000000004 34.02479999999999 L 42.328900000000004 46.681099999999994 L 49.875600000000006 46.681099999999994 C 55.70960000000001 46.681099999999994 58.92640000000001 44.331799999999994 58.92640000000001 40.132799999999996 C 58.92580000000001 36.1977 56.16020000000001 34.0248 51.289100000000005 34.0248 z M 42.328900000000004 51.70269999999999 L 42.328900000000004 65.6502 L 51.618700000000004 65.6502 C 57.693000000000005 65.6502 60.9104 63.2129 60.9104 58.6324 C 60.9104 54.052 57.602700000000006 51.702 51.228100000000005 51.702 L 42.328900000000004 51.702 z" stroke-linecap="round" />
</g>
<g transform="matrix(1 0 0 1 179.05 250.08)" id="SebnpDPz4PnUYDprYgkkI"  >
<path style="stroke: none; stroke-width: 1; stroke-dasharray: none; stroke-linecap: butt; stroke-dashoffset: 0; stroke-linejoin: miter; stroke-miterlimit: 4; fill: rgb(255,255,255); fill-rule: nonzero; opacity: 1;" vector-effect="non-scaling-stroke"  transform=" translate(-49.95, -49.95)" d="M 0 49.9465 C 0 22.361810000000002 22.36181 0 49.9465 0 C 77.53119 0 99.893 22.36181 99.893 49.9465 C 99.893 77.53119 77.53119000000001 99.893 49.9465 99.893 C 22.361810000000002 99.893 0 77.53119000000001 0 49.9465 z M 25.87569 80.58735 L 56.35086 80.58735 C 56.35086 80.58735 49.60028 65.2327 51.31719 51.14623 C 53.034099999999995 37.059760000000004 64.155 30.640850000000004 70.45684 29.957990000000002 C 76.75868 29.27513 80.19251 33.15769 80.19251 33.15769 L 81.55823 31.08959 C 81.55823 31.08959 72.50542999999999 21.91972 61.05284999999999 22.95377 C 49.600269999999995 23.98782 41.69857999999999 31.53832 36.76245999999999 40.70819 C 31.84584999999999 49.878060000000005 28.97782999999999 56.29696 27.02678999999999 65.91556 C 25.075749999999992 75.55367 25.875679999999992 80.58734 25.875679999999992 80.58734 z M 19.10635 70.94955 L 24.72533 71.63241000000001 L 25.75938 65.68175000000001 L 19.80872 65.23301000000001 z M 29.1932 52.62933 L 30.79305 48.161460000000005 L 25.525260000000003 46.093360000000004 L 23.808350000000004 50.912420000000004 z M 36.64615 37.2942 L 39.7483 33.62625 L 35.74868 30.99235 L 32.52947 34.54323 z M 44.78197 23.09066 L 47.53293 26.40742 L 51.31794 24.22226 L 48.56698 21.120109999999997 z M 58.18558 19.30565 L 58.86844 22.62241 L 63.57043 22.50535 L 63.102180000000004 19.52027 z M 74.10603 22.85653 L 73.98897000000001 24.92463 L 77.18867 26.64154 L 77.87153 25.60749 z M 73.42317 31.67521 L 73.42317 33.39212 L 76.52532 33.74331 L 76.52532 32.37759 z M 63.57044 33.158 L 65.05323 35.90896 L 67.23839 34.19205 L 66.78965 32.35808 z M 56.46867 38.87453 L 59.785430000000005 42.54248 L 61.15115000000001 40.142709999999994 L 58.86844000000001 36.70889 z M 54.28351 46.22994 L 52.80072 49.215019999999996 L 56.70279 52.53178 L 57.61978 48.74677 z M 52.68366 56.64846 L 52.449540000000006 60.64808 L 57.268600000000006 62.71618 L 57.03448000000001 58.93117 z M 55.22001 74.96868 L 61.28773 75.31987000000001 L 59.10257 70.852 L 54.0689 70.852 z" stroke-linecap="round" />
</g>
</svg>